<svg xmlns="http://www.w3.org/2000/svg" width="32" height="32"><path fill="#55ACEE" d="M0 0h32v32H0z"/><path fill="#FFF" d="M28 8.557c-.884.39-1.833.656-2.828.775 1.017-.608 1.798-1.573 2.166-2.725-.953.567-2.006.976-3.13 1.194-.896-.953-2.176-1.55-3.593-1.55-2.72 0-4.924 2.205-4.924 4.924 0 .387.048.763.13 1.125-4.09-.21-7.72-2.17-10.15-5.15-.42.727-.665 1.574-.665 2.477 0 1.71.87 3.214 2.19 4.1-.806-.027-1.564-.25-2.23-.616v.06c0 2.39 1.7 4.38 3.952 4.83-.414.115-.85.174-1.297.174-.318 0-.626-.03-.928-.086.63 1.956 2.447 3.38 4.6 3.42-1.685 1.318-3.808 2.107-6.114 2.107-.398 0-.79-.023-1.175-.068 2.18 1.396 4.768 2.213 7.55 2.213 9.056 0 14.01-7.507 14.01-14.013 0-.213-.005-.426-.015-.637.96-.695 1.795-1.56 2.455-2.55z"/></svg>